<svg xmlns="http://www.w3.org/2000/svg" viewBox="0 0 284.929 166.165">
  <path
    fill="var(--fill,
    #818181)"
    d="M282.082 17.129L267.808 2.856C265.906.95 263.715 0 261.238 0c-2.471 0-4.661.95-6.563 2.856L142.466 115.059 30.262 2.859C28.359.953 26.169.003 23.695.003c-2.475 0-4.665.95-6.567 2.856L2.856 17.133C.95 19.035 0 21.225 0 23.7c0 2.473.953 4.663 2.856 6.565l133.043 133.046c1.902 1.903 4.093 2.854 6.567 2.854s4.661-.951 6.562-2.854L282.082 30.265c1.902-1.903 2.847-4.093 2.847-6.565 0-2.475-.945-4.665-2.847-6.571z"
  />
</svg>
